<?xml version="1.0" encoding="UTF-8"?>
<svg enable-background="new 0 0 455.063 491.482" viewBox="0 0 455.063 491.482" xmlns="http://www.w3.org/2000/svg">
 <path d="m325.696,462.192-10.223,3.816c-2.053-1.08-3.924-1.548-5.617-1.404-1.764.072-3.203.792-4.607,2.017-.611-.505-1.512-.505-2.412,0-1.043.432-2.088,1.476-3.42,2.987 1.404-.756 2.844-1.151 4.607-1.188 1.693-.145 3.564.252 5.617.792-4.609,0-7.992,1.872-10.008,5.616-2.125,3.672-2.881,9.216-2.412,16.632 6.047-1.116 12.275-2.34 18.828-4.212 6.588-1.836 13.211-3.996 20.268-6.624 .107.936.576,1.655 1.799,2.016 1.152.324 1.656.864 5.006.216 3.348-.863 12.42-2.34 14.436-4.428 1.764-2.088-2.016-5.4-3.42-7.992-1.369-2.7-3.025-5.328-4.824-8.028l-23.618-.216z" fill-rule="evenodd" stroke="#000" stroke-miterlimit="10" stroke-width=".036"/>
 <path d="m322.061,466.801c1.225.432 2.412,1.152 3.42,2.016 1.008.828 1.871,1.944 2.592,3.204-1.691-1.296-3.275-2.231-5.184-2.808-1.873-.648-3.924-.864-6.012-.792 3.455,1.368 5.902,2.447 7.199,3.384 1.26.864 1.512,1.584.611,2.016-.684-.684-1.908-1.332-4.211-1.8-2.268-.54-5.293-1.008-9.217-1.404-2.627,1.332-4.715,3.097-6.408,5.005-1.764,1.8-2.916,4.464-3.6,6.624-.721,2.123-.863,4.464-.432,6.623 7.848-1.871 15.084-3.636 21.852-5.436 6.768-1.836 12.816-3.636 18.432-5.4 3.096.612 5.725.792 8.029.396 2.34-.396 4.031-1.26 5.615-2.592-1.367-2.592-2.664-4.933-4.031-7.021-1.369-2.231-2.809-4.032-4.176-5.796-2.088.288-4.717.685-8.426.792-3.672.216-8.1.145-13.428.181-.861.936-1.725,1.871-2.625,2.808z" fill="#c0c0c0" fill-rule="evenodd" stroke="#000" stroke-miterlimit="10" stroke-width=".036"/>
 <path d="m361.948,376.045c-2.592-.828-4.68-.828-6.406,0-1.836.72-3.35,1.872-3.996,5.004-.613,3.132-.648,10.476.18,13.824 .791,3.203 3.707,2.808 4.031,5.615 .037,2.664-2.412,6.156-3.023,10.62-.648,4.393-1.943,11.845-.396,15.84 1.439,3.96 5.545,7.92 9.396,7.597 3.779-.576 10.547-3.708 13.645-10.225 3.096-6.588 4.5-15.947 4.607-28.655-6.013-6.517-12.025-13.068-18.038-19.62z" fill-rule="evenodd" stroke="#000" stroke-miterlimit="10" stroke-width=".036"/>
 <path d="m362.165,377.845c-2.736-.937-4.717-.937-6.229,0-1.547.864-2.412,3.06-2.592,5.616-.252,2.592.541,6.768 1.404,9.611 .793,2.593 3.42,3.996 3.6,6.589 .072,2.483-2.016,4.823-2.807,8.819-.865,4.032-2.701,11.088-2.018,15.048 .648,3.889 3.025,7.236 6.014,7.813 2.879.324 8.639-2.916 11.447-5.4 2.627-2.52 3.924-4.896 5.004-9.647 1.043-4.933 1.619-11.16 1.584-19.225-5.111-6.408-10.259-12.816-15.407-19.224z" fill="#c0c0c0" fill-rule="evenodd" stroke="#000" stroke-miterlimit="10" stroke-width=".036"/>
 <path d="m376.565,402.469c-.756.756-2.053.899-4.176.828-2.125-.252-4.932-.721-8.424-1.8 1.547,2.304 3.203,3.563 5.398,3.779 2.054.109 4.501-.828 7.202-2.807z" fill-rule="evenodd" stroke="#000" stroke-miterlimit="10" stroke-width=".036"/>
 <path d="m376.168,406.501c-2.375,1.115-4.572,1.691-6.588,1.584-2.053-.145-3.924-.828-5.615-2.196 2.23,3.564 4.32,5.184 6.408,5.4 2.088.071 3.887-1.476 5.795-4.788z" fill-rule="evenodd" stroke="#000" stroke-miterlimit="10" stroke-width=".036"/>
 <path d="m373.397,412.837c-1.908.792-3.492,1.188-4.896,1.188-1.404-.071-2.484-.54-3.385-1.403 .648,3.312 1.549,4.932 2.988,5.004 1.369-.001 3.133-1.55 5.293-4.789z" fill-rule="evenodd" stroke="#000" stroke-miterlimit="10" stroke-width=".036"/>
 <path d="m304.096,263.688c-1.404,4.068-1.584,9.216-.539,15.876 .936,6.66 1.691,14.832 6.443,23.4 4.789,8.532 11.988,17.28 21.996,27.072-.072,1.548-.072,3.239 0,5.22 0,1.908-.432,5.904.359,6.443 .793.396 2.053-.827 4.176-3.815 1.766,1.332 3.277,1.62 4.393.864 1.117-.864 1.873-2.593 2.268-5.58 2.377,1.584 4.178,2.088 5.4,1.368 1.152-.685 1.729-2.593 1.729-5.58 4.104,1.08 6.48.863 6.984-1.044 .395-1.944-1.477-6.805-3.816-10.116-2.268-3.384-5.58-6.588-9.793-9.756-1.871-3.96-4.248-8.568-6.982-13.969-2.844-5.472-6.049-11.483-9.756-18.323 .574-3.061.863-6.013.863-9.252-.035-3.24.539-7.488-1.045-9.973-1.727-2.628-4.715-5.436-8.566-5.22-3.924.288-11.736,4.392-14.113,6.624-2.413,2.053-2.413,3.926-.001,5.761z" fill-rule="evenodd" stroke="#000" stroke-miterlimit="10" stroke-width=".036"/>
 <path d="m330.557,289.177c-2.484,18.036-5.184,34.02-8.244,48.528-3.133,14.472-7.344,28.655-10.117,37.836-2.951,9.035-5.832,12.239-6.695,16.271-.791,3.96.252.972 1.873,7.704 1.512,6.768 5.76,21.78 7.199,32.544 1.332,10.656 1.549,20.772.791,30.924 6.193,3.168 12.061,4.86 18.145,5.076 6.012.145 11.701-1.188 17.604-3.996-7.307-19.008-12.203-34.416-14.688-47.196-2.447-12.743-1.547-20.123-.504-28.8 .9-8.676 2.664-15.479 5.869-23.184 3.059-7.884 9.359-21.672 12.779-23.472 3.42-1.729 5.436,8.424 7.451,12.815 1.836,4.284 3.133,8.496 3.744,12.78l-5.076,8.28c-1.008,5.472-1.188,9.863-.539,13.859 .539,3.96 1.547,7.164 4.283,9.324 2.736,1.944 8.496,3.708 12.277,2.664 3.6-1.116 6.516-4.824 9.863-9.324 3.42-4.572 6.732-10.476 10.367-17.855-1.654-8.856-3.42-17.929-5.58-27.757-2.268-9.936-5.363-21.384-7.199-30.888-1.801-9.612-3.096-17.964-3.744-25.884-16.595-.07-33.228-.142-49.859-.249z" fill-rule="evenodd" stroke="#000" stroke-miterlimit="10" stroke-width=".036"/>
 <path d="m381.497,250.621c.469,5.831 1.404,10.907 2.809,15.768 1.367,4.752 1.799,7.236 5.328,12.744 3.455,5.436 8.496,11.844 15.264,19.656-.648,4.716-.289,8.712 1.225,12.384 1.439,3.6 3.6,7.596 7.451,9.216 3.779,1.476 8.676,1.476 15.084,0 1.98,1.728 3.672,2.376 5.473,1.8 1.727-.647 3.924-3.708 4.787-5.147 .793-1.477.684-2.664-.18-3.564 2.16.648 3.707.36 4.787-.864 .973-1.224 1.441-3.456 1.404-6.552 2.771-.396 4.465-1.512 5.508-3.204 .9-1.8 1.008-4.176.18-7.271 2.521-.036 3.996-.973 4.43-2.664 .467-1.8-.182-4.716-1.945-7.632-1.908-2.988-5.039-6.084-9.395-9.721-.541-3.168-1.441-5.76-2.846-7.632-1.475-2.016-3.168-3.168-5.471-3.888 1.547-2.88 2.268-5.256 2.303-7.272-.143-2.16-.971-4.031-2.482-4.788-1.514-.863-6.014-1.476-6.408.505-.504,2.052.791,5.903 3.744,11.699-3.133-.792-5.941-.972-8.713-.684-2.771.252-5.363,1.08-7.775,2.484-3.6-4.284-6.264-7.669-7.992-10.837-1.836-3.096-1.045-4.607-2.484-7.596-1.549-3.204-4.355-8.676-6.191-11.016-1.873-2.412-3.42-3.313-4.789-2.988-4.358,5.688-8.714,11.376-13.106,17.064z" fill-rule="evenodd" stroke="#000" stroke-miterlimit="10" stroke-width=".036"/>
 <path d="m395.825,236.905c.539,2.592 1.549,5.364 3.023,8.172 1.512,2.808 3.277,5.652 5.689,8.676-4.934,3.168-7.777,5.147-8.533,6.372-.719,1.08 2.844,0 3.744.359 .684.216-.756,1.98.541,1.404 1.15-.576 3.383-2.268 6.551-4.932l7.775,11.159c-3.455,2.952-5.83,6.732-7.416,11.341-1.584,4.607-2.195,9.936-1.979,16.128-3.168-3.385-6.012-6.876-8.676-10.62-2.701-3.816-4.934-6.336-7.273-11.88-2.375-5.725-4.787-12.853-7.092-21.816 4.538-4.788 9.073-9.575 13.646-14.363z" fill="#e2b79c" fill-rule="evenodd" stroke="#000" stroke-miterlimit="10" stroke-width=".036"/>
 <path d="m441.94,274.129c.182-2.017-.467-3.78-1.943-5.292-1.619-1.729-3.852-3.744-7.271-4.104-3.529-.396-9.396-.72-13.32,1.944-4.031,2.628-7.992,8.28-10.08,13.5-2.016,5.04-2.088,11.952-2.305,16.992-.432,5.04-.432,9.359.541,12.96 .971,3.456 3.24,6.048 5.291,7.632 1.945,1.368 3.924,1.332 6.229,1.404 2.232.107 4.645-.181 7.236-.721-2.195-1.691-3.24-3.456-2.988-5.147 .217-1.836 1.584-3.456 4.248-5.292-2.016-4.248-2.664-7.452-1.943-9.756 .646-2.305 2.699-3.816 6.012-4.248-1.621-3.349-2.088-5.544-1.404-6.732 .684-1.224 2.52-1.404 5.508-.54-3.564-3.24-5.291-6.012-5.328-8.172 .072-2.268 3.275-4.392 5.328-5.112 1.941-.829 3.958-.468 6.189.684z" fill="#c03018" fill-rule="evenodd" stroke="#000" stroke-miterlimit="10" stroke-width=".036"/>
 <path d="m415.877,281.94c-.721-.252-2.846,7.92-3.025,12.42-.252,4.356.037,11.124 1.441,13.645 1.332,2.268 4.752,1.728 6.371.863 1.404-.827 3.023-3.743 2.484-5.831-.648-2.16-4.932-3.601-6.049-7.093-1.222-3.672-.61-13.715-1.222-14.004z" fill="#f13d2f" fill-rule="evenodd"/>
 <path d="m433.264,279.637c.793,1.872 3.42,5.58 6.373,7.812 2.879,2.16 9.324,5.292 11.16,5.112 1.656-.324 1.584-3.96-.361-6.731-2.051-2.845-8.207-8.713-10.979-10.261-2.701-1.62-4.141-.288-5.148.504-1.08.612-1.945,1.656-1.045,3.564z" fill="#e2b79c" fill-rule="evenodd" stroke="#000" stroke-miterlimit="10" stroke-width=".036"/>
 <path d="m433.768,292.74c.469,1.513 1.404,3.168 3.205,4.969 1.691,1.584 5.219,4.68 7.271,4.968 2.016.107 4.969-1.62 4.969-3.384-.109-1.729-2.809-5.04-5.328-6.732-2.701-1.8-8.389-3.78-10.117-3.708-1.656.036-.684,2.303 0,3.887z" fill="#e2b79c" fill-rule="evenodd" stroke="#000" stroke-miterlimit="10" stroke-width=".036"/>
 <path d="m438.016,303.037c-1.799-1.656-4.104-3.492-5.652-4.248-1.654-.792-2.986-1.225-3.563-.181-.721.973-1.26,4.104.18,6.192 1.367,1.979 6.443,5.184 8.711,5.868 2.34.432 4.789-1.188 4.969-2.484-.073-1.368-2.916-3.599-4.645-5.147z" fill="#e2b79c" fill-rule="evenodd" stroke="#000" stroke-miterlimit="10" stroke-width=".036"/>
 <path d="m429.161,310.669c-1.549-.181-1.871,1.188-1.943,2.447-.252,1.08-.18,3.492.898,4.465 1.152.936 4.141,1.476 5.652,1.044 1.297-.576 3.24-3.204 2.484-4.429-.863-1.475-5.543-3.347-7.091-3.527z" fill="#e2b79c" fill-rule="evenodd" stroke="#000" stroke-miterlimit="10" stroke-width=".036"/>
 <path d="m432.725,261.709c-.9-.469-1.439-3.456-1.621-4.933-.252-1.548.037-3.6.721-3.924 .684-.396 2.844.468 3.564,1.62 .576,1.188.828,3.528.359,4.932-.539,1.189-2.195,2.7-3.023,2.305z" fill="#cf341a" fill-rule="evenodd" stroke="#000" stroke-miterlimit="10" stroke-width=".036"/>
 <path d="m305.825,263.868c-1.188,2.7-1.549,6.589-1.225,11.521 .252,4.932.973,12.276 3.133,18.144 2.088,5.725 5.473,10.872 9.611,16.416 4.068,5.437 8.965,10.908 14.832,16.416 .289-2.376.936-4.464 2.088-6.119 1.117-1.729 3.096-2.881 4.537-4.032 1.295-1.296 2.844-2.269 3.672-3.313 .828-1.008 1.043-1.979 1.043-2.771-1.836-4.284-3.887-8.46-6.443-12.924-2.592-4.572-5.867-9.433-8.713-13.608-2.916-4.284-7.775-9.648-8.207-11.52-.432-1.801 1.439-1.729 5.76.504 .217-4.32.035-7.885-.539-10.98-.576-3.168-1.297-6.12-3.133-7.344-2.016-1.26-5.615-1.116-8.568,0-3.061,1.116-7.955,4.32-9.252,6.12-1.333,1.619-.864,2.734 1.404,3.49z" fill="#e2b79c" fill-rule="evenodd"/>
 <path d="m344.057,311.532c1.871,1.116 6.875,6.805 8.891,9.576 1.873,2.592 2.916,4.752 2.449,5.94-.648,1.008-3.096,2.376-5.4.359-2.375-2.088-7.236-9.972-8.207-12.563-.938-2.736.287-4.392 2.267-3.312z" fill="#e2b79c" fill-rule="evenodd"/>
 <path d="m339.161,316.572c1.871,1.908 8.496,10.836 9.611,13.608 .973,2.628-1.943,3.168-3.311,2.448-1.549-.9-3.457-4.86-4.896-7.164-1.439-2.412-3.096-5.328-3.313-6.804-.179-1.583-.144-3.995 1.909-2.088z" fill="#e2b79c" fill-rule="evenodd"/>
 <path d="m334.985,320.245c1.043,1.26 2.844,5.724 3.996,8.388 .936,2.592 2.088,5.436 2.088,6.983-.145,1.404-1.369,2.521-2.268,1.549-.9-1.188-2.27-5.148-3.133-7.849-1.043-2.808-2.52-6.695-2.627-8.208-.181-1.656.936-2.124 1.944-.863z" fill="#e2b79c" fill-rule="evenodd"/>
 <path d="m333.042,328.272c-.396.612.107,9 .539,10.296 .396,1.044 1.908-1.584 1.908-3.312-.072-1.692-2.233-7.631-2.447-6.984z" fill="#e2b79c" fill-rule="evenodd" stroke="#000" stroke-miterlimit="10" stroke-width=".036"/>
 <path d="m300.28,272.041c-1.115-1.801-1.691-5.112-2.123-10.08-.576-5.112-1.656-13.248-.18-19.692 1.619-6.552 4.68-13.824 9.576-18.612 4.787-4.788 13.715-8.64 19.152-9.756 5.326-1.188 9.215,1.008 12.779,2.844 3.492,1.764 6.156,4.32 8.137,7.812 1.295-1.836 2.734-3.996 4.607-6.912 1.836-2.952 4.463-8.46 6.229-10.296 1.654-1.872 2.844-2.16 3.707-.864 4.607-6.516 8.82-10.368 12.924-11.7 4.033-1.368 7.309-.828 11.377,3.708 4.066,4.572 9.215,17.028 12.383,23.22 2.881,5.976 5.041,9.072 5.508,12.6 .361,3.384-.646,6.084-3.023,7.956 .936-3.132.18-4.428-2.123-4.428-2.412,0-9.252,1.872-12.061,4.788-2.881,2.916-4.537,6.912-4.969,12.42 .504,11.771 1.045,20.844 1.621,27.647 .576,6.696 1.115,10.836 1.764,12.564-11.34,1.656-20.736,2.88-28.729,3.384-8.027.468-14.111.504-18.791-.18l-11.34-22.141c.684-5.544.684-9.972 0-13.14-.686-3.312-2.053-5.184-4.248-6.191-2.449-1.045-6.949-.937-9.758.18-2.844,1.116-4.428,3.744-6.551,6.372-2.124,2.449-4.032,5.329-5.868,8.497z" fill-rule="evenodd" stroke="#000" stroke-miterlimit="10" stroke-width=".036"/>
 <path d="m329.549,214.98c.035,1.656-.072,3.78-.18,6.372-.145,2.628-.434,5.508-.721,9.036 1.477-2.268 3.131-3.888 4.967-5.148 1.838-1.332 3.854-4.788 6.049-2.304 2.125,2.484 4.428,8.28 6.912,17.388-.072-2.52-.072-5.004 0-7.452 0-2.52.107-5.004.18-7.452-2.484-3.996-5.148-6.696-7.992-8.496-2.916-1.763-5.939-2.411-9.215-1.944z" fill="#7fc0db" fill-rule="evenodd" stroke="#000" stroke-miterlimit="10" stroke-width=".036"/>
 <path d="m348.52,225.421 .361,14.004c.539-2.844 1.367-5.868 2.482-8.676 1.117-2.952 2.664-7.092 4.248-8.676 1.477-1.548 2.881-1.8 4.609-.9 1.656.756 3.527,2.7 5.471,5.688 .361-2.808.252-5.76-.322-8.856-.648-3.276-2.27-8.388-3.205-9.936-.9-1.62-.539-1.98-2.664.864-2.339,2.952-5.867,8.316-10.98,16.488z" fill="#7fc0db" fill-rule="evenodd" stroke="#000" stroke-miterlimit="10" stroke-width=".036"/>
 <path d="m364.649,205.584c3.313-4.14 6.443-6.876 9.396-8.352 2.844-1.476 5.039-3.312 8.135-.504 3.096,2.736 7.273,10.8 10.297,16.812 2.951,5.904 5.184,12.06 7.092,18.612-4.645,1.008-8.604,2.844-11.881,5.508-3.348,2.7-6.012,6.048-7.992,10.476-2.158-2.664-3.852-5.796-4.787-9.396-.973-3.672-1.477-7.704-1.225-12.24-1.152,3.492-1.619,7.02-1.26,10.98s1.801,8.641 3.205,12.24c1.223,3.42 2.699,6.3 4.428,8.496-.613,4.968-.865,10.188-.361,15.948 .324,5.688 1.404,11.628 2.846,18.107-8.641,1.8-16.309,3.096-23.4,3.889-7.164.684-13.355.863-18.973.539l-12.203-21.275c.252-4.284.359-7.813.324-10.98-.072-3.204-.434-3.815-.686-7.812-.324-4.032-.684-9.36-1.08-16.128-.539,2.304-.756,4.68-1.043,7.271-.18,2.592-.432,5.256-.359,8.137-2.197-2.593-4.861-3.456-7.992-2.988-3.35.576-8.354,3.456-10.98,6.012-2.557,2.376-3.924,5.148-4.248,8.316-.793-2.88-1.332-6.301-1.621-10.801-.395-4.571-1.943-10.476-.359-15.768 1.549-5.4 4.645-11.448 9.432-15.768 4.645-4.284 10.584-7.488 18.252-9.756l-.18,17.712c3.168-2.88 5.473-4.932 7.453-6.012 1.799-1.116 2.016-3.348 3.707-.72 1.656,2.484 3.564,7.848 6.012,15.948l7.992-.18c0-5.184.359-9.072 1.08-12.204s1.873-5.4 3.168-6.228c1.117-.792 2.377,0 4.068,1.26 1.656,1.152 3.564,2.988 5.867,5.652 1.369-4.032 1.945-8.1 1.584-12.204-.396-4.21-1.585-8.314-3.708-12.599z" fill="#7fc0db" fill-rule="evenodd" stroke="#000" stroke-miterlimit="10" stroke-width=".036"/>
 <path d="m372.821,167.821c1.08-2.664 1.871-4.932 2.375-6.948 .361-1.98-.035-3.312.361-5.112 .432-1.872 1.115-4.14 2.195-6.408-2.447.396-3.889.252-4.031-.576-.289-.9.719-2.232 2.736-4.392-3.061.18-4.393-.36-4.393-1.62 .072-1.404 1.477-3.348 4.607-6.228-3.996,1.152-6.156.828-6.623-.576-.504-1.584.828-4.248 3.852-8.388-2.016.252-3.42-.18-4.213-1.296-.756-1.296.434-4.464-.719-5.472-1.369-1.008-5.904.612-6.949,0-1.08-.72-.791-2.016.721-4.032-4.607,1.26-7.416,1.692-8.424,1.44-1.08-.396.252-2.412 2.195-3.276 1.836-.972 4.824-1.512 8.965-2.016-4.717-1.044-8.785-1.116-12.637-.36-3.816.72-8.568,4.824-10.225,4.932-1.799,0-1.871-1.584-.359-4.752-1.764,2.232-3.096,3.492-4.393,3.636-1.295.108-2.34-.756-3.131-2.736-1.691,3.096-2.844,4.932-3.852,5.508-1.008.504-1.621-.18-1.98-2.196-2.377,1.872-4.104,3.744-5.328,5.472s-1.297,4.356-2.016,4.968c-.828.504-1.693-.216-2.736-2.016-1.26,2.34-2.232,5.58-2.916,9.864-.721,4.356-1.332,10.008-1.297,15.552-.035,5.364.324,10.62 1.08,16.308-2.734-2.7-4.752-3.42-6.191-2.016-1.477,1.368-2.34,5.544-2.592,10.044-.289,4.428-.756,12.96.936,16.308 1.621,3.168 4.5,4.14 8.785,2.916 .539,6.768 2.52,12.636 6.227,17.748 3.637,5.04 10.297,11.052 15.553,12.636 5.076,1.476 9.756,1.188 15.012-3.636 5.184-5.004 10.439-13.32 15.912-25.632 2.305-.54 4.32-2.232 6.049-4.932 1.691-2.844 3.635-7.668 4.031-11.556 .252-3.924-1.332-9.864-2.377-11.7-1.114-1.908-2.519-1.728-4.21.54z" fill-rule="evenodd" stroke="#000" stroke-miterlimit="10" stroke-width=".036"/>
 <path d="m315.329,169.477c-2.088-3.204-3.779-4.284-4.932-3.096-1.332,1.26-2.197,5.76-2.197,10.044 .037,4.14.613,12.06 2.557,14.472 1.873,2.268 4.859,1.908 8.965-.936-1.404,7.164-.613,13.14 2.375,18.504 2.988,5.292 10.332,11.016 15.373,12.996 4.824,1.908 8.568,3.024 13.752-1.656 5.184-4.896 10.727-13.68 17.027-26.892 2.412-.468 4.355-2.016 5.832-4.788 1.439-2.916 2.699-8.64 2.951-11.88 .182-3.312-.467-6.336-1.654-7.128-1.225-.72-3.061,0-5.508,2.556-.506-1.548-.758-3.492-.361-5.688 .217-2.304 2.52-5.796 2.197-7.848-.469-2.088-3.602-2.916-4.393-4.572-.828-1.944.072-4.608-.359-6.048-.541-1.476-2.27-1.728-2.557-2.556-.217-.972.072-1.692.719-3.132 .506-1.548 1.045-3.456 2.018-5.868-2.377.828-4.393.828-6.049,0-1.691-.936-2.484-4.14-4.031-5.292-1.693-1.224-2.664-1.8-5.832-2.016-3.348-.432-8.785-.648-13.537.18-4.859.792-11.699.936-14.832,5.148-3.24,4.212-2.771,14.112-4.031,20.124-1.298,5.904-2.413,10.979-3.493,15.372z" fill="#e2b79c" fill-rule="evenodd" stroke="#000" stroke-miterlimit="10" stroke-width=".036"/>
 <path d="m324.87,141.648c2.699,1.152 5.291,2.196 7.486,2.736 2.16.54 4.213.792 5.869.756-2.412,2.628-4.248,5.076-5.508,7.488-1.404,2.268-2.232,4.968-2.197,6.588-.035,1.548.756,2.772 2.377,3.132 1.656.252 4.932-.54 7.344-1.116 2.268-.612 4.355-1.404 6.408-2.376-.721,3.636-2.305,6.012-5.148,7.524-2.951,1.476-8.893,1.836-11.699,1.08-2.916-.972-5.148-3.096-4.752-6.228 .467-3.132 2.807-7.236 7.307-12.456-1.979.54-3.383.864-4.211.576-.973-.324-1.188-1.368-1.08-2.016 .072-.756.611-1.296 1.619-2.016-.971-.288-1.764-.72-2.375-1.296-.614-.648-1.188-1.44-1.44-2.376z" fill-rule="evenodd" stroke="#000" stroke-miterlimit="10" stroke-width=".036"/>
 <path d="m352.122,139.093c-2.484,1.944-4.572,3.42-6.408,4.572-1.873,1.152-3.35,1.692-4.572,2.016 .791,2.196 1.729,3.636 2.951,4.032 1.188.36 3.348-.684 3.996-1.476 .541-.864.252-2.016-.719-3.456 1.223-.9 2.303-1.872 3.096-2.772 .79-1.009 1.294-1.98 1.656-2.916z" fill-rule="evenodd" stroke="#000" stroke-miterlimit="10" stroke-width=".036"/>
 <path d="m318.28,174.769c1.189-1.224 2.773-1.836 4.752-1.836s4.248,1.404 6.949,1.836c2.52.324 5.291.432 8.604.18 3.313-.36 8.244-1.26 11.34-2.016 2.988-.828 4.824-3.096 6.768-2.916 1.945.108 4.393,2.628 4.572,3.672 .037.972-1.367,1.548-4.211,2.016-2.449,9.792-4.789,16.812-7.309,21.204-2.484,4.32-4.859,5.724-7.668,4.788-3.061-1.152-6.732-6.696-9.9-10.8s-6.156-8.64-8.963-13.752c-2.197.18-3.529-.036-4.393-.36-.863-.469-1.045-1.044-.541-2.016z" fill-rule="evenodd" stroke="#000" stroke-miterlimit="10" stroke-width=".036"/>
 <path d="m328.542,177.973c2.916,1.656 6.191,2.196 10.223,1.764 3.961-.468 8.281-2.052 13.357-4.608l-2.018,8.964c-1.691,2.124-3.383,3.708-5.471,4.608-2.125.864-4.896,1.152-6.77.864-1.906-.324-3.383-1.224-4.57-2.7-1.584-2.952-3.168-5.905-4.751-8.892z" fill="#fff" fill-rule="evenodd" stroke="#000" stroke-miterlimit="10" stroke-width=".036"/>
 <path d="m314.79,177.325c-.289-.576-2.629-3.528-3.277-3.456-.539.036-.287,1.692-.215,3.456-.252,1.764-.648,5.4-.361,6.444 .324.828 2.088-.576 2.377-1.296 .145-.864-1.117-2.916-1.26-3.672-.217-.9-.145-1.26.359-1.476 .504-.288 2.412.504 2.377,0z" fill-rule="evenodd" stroke="#000" stroke-miterlimit="10" stroke-width=".036"/>
 <path d="m372.245,176.245c.145-.54 2.305-1.836 2.592-1.116 .217.864-.648,4.212-.936,5.868-.252,1.512-.359,2.556-.9,3.132-.791.468-3.131.792-3.131,0 .07-.972 2.807-3.636 3.49-4.788 .469-1.152.434-1.332.182-1.8-.182-.576-1.584-1.008-1.297-1.296z" fill-rule="evenodd" stroke="#000" stroke-miterlimit="10" stroke-width=".036"/>
 <path d="m337.29,207.168c.756-.216 5.146,2.988 7.344,2.952 2.23-.144 5.363-3.852 5.652-3.492 .107.324-3.098,4.86-4.754,5.688-1.871.756-4.463-.108-5.832-.936-1.403-.9-3.311-4.067-2.41-4.212z" fill-rule="evenodd" stroke="#000" stroke-miterlimit="10" stroke-width=".036"/>
 <path d="m322.21 290.72c-11.664-6.408-20.594-15.084-27.613-26.424-7.055-11.448-11.664-22.752-13.824-41.4-2.123-18.828-3.814-51.804 1.189-70.2 4.967-18.396 14.256-31.356 28.402-39.456-10.439 4.356-18.359 11.412-24.443 21.708-6.119 10.188-9.936 23.004-11.447 39.42-1.656 16.488-0.865 41.652 2.375 58.392 3.348 16.524 9.648 30.348 17.352 40.212 7.632 9.684 16.776 15.551 28.009 17.748z" fill-rule="evenodd" stroke="#000" stroke-miterlimit="10" stroke-width=".036"/>
 <path d="m293.801,307.32c-14.473-14.544-24.373-31.716-30.385-52.487-5.939-21.024-7.271-50.796-5.111-71.388 2.088-20.52 9.539-38.088 17.352-50.472 7.848-12.492 29.016-22.392 28.801-23.292-.541-.756-23.004,6.948-31.572,18.54-8.748,11.556-17.172,29.232-19.729,50.112-2.484,20.916-.576,53.136 4.752,74.161 5.291,20.88 16.74,37.8 26.424,50.075 9.648,12.061 19.621,19.296 30.744,22.104l-21.276-17.353z" fill-rule="evenodd" stroke="#000" stroke-miterlimit="10" stroke-width=".036"/>
 <path d="m56.129,11.113c2.412.756 3.456,1.836 3.42,3.096-.072,1.26-1.512,2.844-4.032,4.608 8.568,3.42 16.74,11.124 24.66,23.112 7.92,12.168 19.08,28.404 22.5,48.708 3.276,20.232 2.952,54.144-2.772,71.46-5.94,17.064-19.908,26.82-32.04,30.528-12.276,3.42-29.7.288-40.464-9.108-10.872-9.504-19.872-27.504-23.796-46.8-4.032-19.476-5.688-48.672.468-68.292 6.264-19.512 18.252-35.352 36.648-48.06-1.44-1.944-2.052-3.528-1.836-4.608 .144-1.188 1.224-1.908 3.096-2.16-6.48-2.412-9.36-4.572-8.64-6.48 .612-2.052 7.272-4.176 12.636-5.256 5.256-1.224 17.316-2.736 19.116-1.224 1.692,1.511-1.296,5.004-8.964,10.476z" fill-rule="evenodd" stroke="#000" stroke-miterlimit="10" stroke-width=".036"/>
 <path d="m48.137,13.272c-2.304.252-5.976,2.052-6.156,2.772-.36.72 2.34,1.836 4.608,1.548 2.196-.396 8.64-3.024 8.928-3.708 .108-.755-5.04-1.008-7.38-.612z" fill="#abd148" fill-rule="evenodd" stroke="#000" stroke-miterlimit="10" stroke-width=".036"/>
 <path d="m58.901,2.185c-11.268,1.08-17.856,2.412-20.34,3.996s-.432,3.204 5.868,5.256c2.304-1.332 4.212-2.16 5.868-2.484 1.584-.396 2.808-.288 3.672.324 3.24-1.476 5.4-2.916 6.192-4.032 .756-1.152.432-2.268-1.26-3.06z" fill="#abd148" fill-rule="evenodd" stroke="#000" stroke-miterlimit="10" stroke-width=".036"/>
 <path d="m42.593,23.137c-9.072,4.608-16.668,11.772-23.112,21.888-6.481,10.116-13.428,21.888-15.336,38.232-1.872,16.416-.792,42.372 4.176,59.256 5.004,16.848 15.696,33.192 25.452,41.004 9.792,7.668 22.644,7.632 32.544,5.112 9.828-2.628 20.376-9.936 26.172-20.34 5.796-10.512 7.956-26.244 8.352-41.94 .324-15.696 1.476-33.732-6.192-51.444 0,0-7.74-17.496-17.676-30.96-9.936-13.5-.972-4.176-19.944-22.716-3.348-.684-6.156-.864-8.568-.54-2.448.251-4.357,1.116-5.868,2.448z" fill="#abd148" fill-rule="evenodd" stroke="#000" stroke-miterlimit="10" stroke-width=".036"/>
 <path d="m47.201,143.629c2.304,2.124 5.436,3.096 9.252,3.06 3.852-.108 8.28-1.332 13.572-3.672l8.928,15.696c-5.508,3.42-11.016,5.22-16.956,5.256-5.976.072-12.096-1.62-18.504-4.932 1.224-5.112 2.448-10.26 3.708-15.408z" fill="#259b5e" fill-rule="evenodd"/>
 <path d="m73.697 140.24 9.252 12.312c5.4-1.152 8.424-7.056 8.928-17.856 0.396-10.908-1.368-26.352-5.832-46.872-1.656 13.356-3.564 24.12-5.58 32.976-2.052 8.784-4.356 15.084-6.768 19.44z" fill="#259b5e" fill-rule="evenodd"/>
 <path d="m111.03 45.313c30.24 5.904 57.816 15.012 83.988 28.152 26.172 13.068 49.537 29.34 71.605 49.644-14.365-10.944-30.205-21.096-48.205-31.032-18.072-10.044-41.22-20.304-59.184-28.152-18.036-7.848-33.877-14.004-48.204-18.612z" fill-rule="evenodd" stroke="#000" stroke-miterlimit="10" stroke-width=".036"/>
 <path d="m100.98 72.997c29.34 3.24 56.448 10.008 82.44 20.448 25.992 10.512 49.607 24.264 72.251 41.94-14.615-9.36-30.492-17.82-48.456-25.956-18.108-8.172-40.932-16.272-58.752-22.356-17.855-6.12-33.407-10.764-47.483-14.076z" fill-rule="evenodd" stroke="#000" stroke-miterlimit="10" stroke-width=".036"/>
 <path d="m126.29 112.2c23.328-0.864 45.18 2.016 66.672 8.784s41.364 17.136 61.02 31.5c-12.457-7.2-25.74-13.428-40.68-18.972-15.012-5.544-33.768-10.476-48.348-13.968-14.687-3.672-27.251-5.941-38.664-7.344z" fill-rule="evenodd" stroke="#000" stroke-miterlimit="10" stroke-width=".036"/>
 <path d="m114.56 140.03c22.932-4.14 45.072-4.32 67.248-0.684 22.176 3.672 43.416 11.052 64.836 22.536-13.32-5.364-27.36-9.648-42.948-12.996-15.696-3.384-34.848-5.58-49.824-7.02-14.976-1.512-27.9-2.124-39.312-1.836z" fill-rule="evenodd" stroke="#000" stroke-miterlimit="10" stroke-width=".036"/>
</svg>
